<?xml version="1.0" encoding="UTF-8"?>
<!DOCTYPE svg PUBLIC "-//W3C//DTD SVG 1.1//EN" "http://www.w3.org/Graphics/SVG/1.1/DTD/svg11.dtd">
<!-- Creator: CorelDRAW X7 -->
<svg xmlns="http://www.w3.org/2000/svg" xml:space="preserve" width="2265px" height="563px" version="1.1" shape-rendering="geometricPrecision" text-rendering="geometricPrecision" image-rendering="optimizeQuality" fill-rule="evenodd" clip-rule="evenodd"
viewBox="0 0 2264998 562954"
 xmlns:xlink="http://www.w3.org/1999/xlink">
 <defs>
      <linearGradient id="id0" gradientUnits="userSpaceOnUse" x1="298702" y1="527531" x2="267811" y2="439727">
       <stop offset="0" stop-opacity="1" stop-color="#31ADE4"/>
       <stop offset="1" stop-opacity="1" stop-color="#0074BE"/>
      </linearGradient>
       <linearGradient id="id1" gradientUnits="userSpaceOnUse" x1="353470" y1="563073" x2="322398" y2="497370">
        <stop offset="0" stop-opacity="1" stop-color="#31ADE4"/>
        <stop offset="1" stop-opacity="1" stop-color="#0062A1"/>
       </linearGradient>
      <linearGradient id="id2" gradientUnits="userSpaceOnUse" x1="285531" y1="337636" x2="235613" y2="208980">
       <stop offset="0" stop-opacity="1" stop-color="#31ADE4"/>
       <stop offset="1" stop-opacity="1" stop-color="#0074BE"/>
      </linearGradient>
      <linearGradient id="id3" gradientUnits="userSpaceOnUse" x1="366626" y1="500993" x2="297982" y2="355478">
       <stop offset="0" stop-opacity="1" stop-color="#31ADE4"/>
       <stop offset="1" stop-opacity="1" stop-color="#0062A1"/>
      </linearGradient>
      <linearGradient id="id4" gradientUnits="userSpaceOnUse" x1="136827" y1="33466.4" x2="329877" y2="261918">
       <stop offset="0" stop-opacity="1" stop-color="#FFD500"/>
       <stop offset="0.270588" stop-opacity="1" stop-color="#FFCC00"/>
       <stop offset="0.788235" stop-opacity="1" stop-color="#FAB300"/>
       <stop offset="1" stop-opacity="1" stop-color="#F7A600"/>
      </linearGradient>
      <linearGradient id="id5" gradientUnits="userSpaceOnUse" x1="6051.33" y1="163703" x2="423464" y2="163703">
       <stop offset="0" stop-opacity="1" stop-color="#F7A600"/>
       <stop offset="0.45098" stop-opacity="1" stop-color="#F49600"/>
       <stop offset="1" stop-opacity="1" stop-color="#EF7D00"/>
      </linearGradient>
 </defs>
 <g id="Слой_x0020_1">
  <metadata id="CorelCorpID_0Corel-Layer"/>
  <g id="_2647689219104">
   <g>
    <g>
     <path fill="url(#id0)" d="M282619 448730c-82202,15440 -155404,14316 -218479,-3500 -8627,-2501 -11752,0 -4814,8814 52136,67076 133901,109709 225481,108771 84829,-1063 160343,-39570 211228,-99456 6439,-7689 6002,-12502 -3437,-14878 -77516,-19505 -146530,-11690 -209979,249z"/>
     <g>
      <path fill="url(#id1)" d="M492534 448543c-31443,-6877 -80890,3251 -176659,50572 -60636,30006 -122773,40758 -169783,29005 41008,22505 88392,35320 138651,34820 84829,-1063 160343,-39570 211229,-99456 6439,-7753 6063,-12879 -3438,-14941z"/>
     </g>
     <path fill="url(#id2)" d="M276681 417662c70513,-13253 147590,-21567 235858,3625 8502,2313 13565,-813 17253,-7627 15628,-29318 26255,-61948 30631,-96206 1187,-9689 -1250,-14628 -10189,-17128 -107208,-30693 -202476,-21317 -274803,-9252 -98894,16691 -182910,11503 -262113,-16129 -10065,-3437 -13440,-2626 -13314,9815 437,34632 7126,67763 19004,98269 3562,9501 10627,16128 21628,20629 64825,26693 144152,31382 236045,14004z"/>
     <path fill="url(#id3)" d="M40635 403659c64763,26631 144153,31381 235983,14003 70514,-13253 147590,-21567 235858,3625 8502,2313 13565,-813 17253,-7627 15628,-29318 26255,-61948 30631,-96206 1187,-9689 -1375,-14440 -10189,-17128 -68576,-20816 -189099,11503 -270490,52197 -91330,45760 -170971,60700 -239046,51136z"/>
     <path fill="url(#id4)" d="M279681 129981c67889,-750 125774,44447 145216,106083 3376,10878 7251,12816 16816,13503 34256,2438 70514,7815 108334,17941 8814,2438 12378,-876 11565,-10627 -12502,-145278 -135276,-258550 -283554,-256862 -134400,1625 -245547,97268 -271927,223480 -2376,11001 -625,15128 9002,18753 33256,12316 66825,20505 102144,24442 11315,1126 13753,-500 16378,-13816 13251,-68886 73200,-122021 146026,-122897z"/>
     <path fill="url(#id5)" d="M424896 234065c-20066,-98457 -107770,-172034 -212041,-170783 -98205,1062 -182597,69700 -206726,160155 -2376,11002 -625,15128 9001,18754 33257,12315 66826,20504 102145,24441 11315,1126 13753,-499 16378,-13815 13252,-68763 73201,-121899 146027,-122836 67889,-750 125774,44447 145216,106083m0 -1999l0 0 0 0z"/>
    </g>
   </g>
   <g>
    <path fill="black" d="M1571553 154174l46008 0 0 7251c-2188,1250 -5126,2438 -9315,3688l0 30443 -1688 14378 751 1 6064 -11565 25818 -44196 34068 0 0 7251c-3251,1876 -6688,3063 -10251,3688l0 55448c3876,1063 7626,2188 10251,3688l0 7127 -46009 0 0 -7127c2938,-1688 6064,-2938 9315,-3688l0 -32256 1563 -12190 -750 1 -5939 11565 -25505 43696 -34381 -1 0 -7127c3438,-1688 6814,-2750 10252,-3688l0 -55448c-4064,-625 -7439,-1876 -10252,-3688l0 -7251z"/>
    <path fill="black" d="M1715892 231438l-33006 0 0 -7127c3438,-1688 6876,-2937 10252,-3688l3562 -53885c-4375,-1688 -7626,-3563 -10251,-5251l0 -7251 43384 0 12128 33194 2938 10690 499 -1 3314 -10876 11814 -33069 44633 0 0 7251c-2626,1563 -5938,2938 -10251,3688l3125 55448c3438,625 6877,1876 10252,3688l0 7127 -46009 0 0 -7127c2000,-1063 4814,-2313 9315,-3688l-3126 -51760 -1250 1 -22567 62575 -9814 -1 -24755 -62575 -1250 1 -2313 51760c3751,1063 6814,2313 9315,3688l-1 7188 62 0z"/>
    <path fill="black" d="M1889613 217374c-3437,7126 -14940,15940 -34069,15940 -26443,0 -41070,-15940 -41070,-40445 0,-26129 16003,-40445 41695,-40445 20816,0 35944,8814 35944,31381 0,3376 -313,7127 -1126,11252l-47258 0c126,15440 8689,24380 23318,24380 6813,0 14628,-2313 19129,-5564l3437 3501zm-45384 -31195l19880 0c313,-2938 499,-5564 499,-8063 0,-10502 -2626,-15753 -9001,-15753 -6376,0 -10127,3876 -11378,23816z"/>
    <path fill="black" d="M1946311 231438l-45571 0 0 -7127c2938,-1688 6501,-2750 10252,-3688l0 -55448c-3751,-938 -7314,-2000 -10252,-3688l0 -7251 45571 0 0 7251c-2313,1375 -4814,2626 -8251,3688l0 22254 25817 1 0 -22253c-2812,-625 -5438,-1876 -8063,-3688l0 -7251 45383 -2 0 7251c-2813,1688 -6252,2938 -10252,3688l0 55448c3751,751 7314,1688 10252,3688l0 7127 -45383 0 0 -7127c2626,-1875 5126,-3063 8063,-3688l0 -23317 -25817 2 0 23317c3562,750 5938,2187 8251,3688l0 7125z"/>
    <path fill="black" d="M2011387 154174l46008 0 0 7251c-2188,1250 -5126,2438 -9315,3688l0 30443 -1688 14378 751 1 6064 -11565 25818 -44196 34068 0 0 7251c-3251,1876 -6688,3063 -10251,3688l0 55448c3876,1063 7626,2188 10251,3688l0 7127 -46009 0 0 -7127c2938,-1688 6064,-2938 9315,-3688l0 -32256 1563 -12190 -750 1 -5939 11565 -25505 43696 -34381 -1 0 -7127c3438,-1688 6814,-2750 10251,-3688l0 -55448c-4063,-625 -7438,-1876 -10251,-3688l0 -7251z"/>
   </g>
   <g>
    <g>
     <path fill="black" d="M1621312 408284l-51010 0 0 -6626c3876,-2188 8377,-4188 12752,-4814l0 -85140c-4187,-938 -9189,-2501 -12752,-4938l0 -6626 51010 0 0 6626c-2938,2000 -6814,4001 -11503,4938l0 54073 -1688 12190 7627 -12815 35944 -49760 0 -3688c-4814,-1064 -9190,-2750 -12253,-4938l0 -6626 51011 0 0 6626c-3438,2313 -8252,4001 -12752,4938l0 85141c4688,751 9001,2626 12752,4814l0 6626 -51010 -1 0 -6626c2501,-1563 7002,-3876 11503,-4814l0 -53946 1688 -12690 -7002 12690 -36569 50510 0 3376c4814,750 9002,2938 12253,4814l-1 6686z"/>
     <path fill="black" d="M1717831 382593c8876,0 14940,5251 14940,13565 0,8064 -6064,13252 -14940,13252 -8565,0 -14629,-5251 -14629,-13252 0,-8314 6064,-13565 14629,-13565z"/>
     <path fill="black" d="M1829790 300140l45696 0 0 6626c-3251,2313 -8689,4188 -12439,4938l-28631 34882c9189,13252 26255,34132 40257,50822l7502 4814 0 6001 -31069 0 -6877 -4626c-8688,-11127 -20816,-30756 -28630,-45571l-6188 -1 0 38757c4501,750 8251,2938 10564,4814l0 6626 -51322 1 0 -6626c3876,-2313 8564,-4001 12752,-4814l0 -85079c-4814,-625 -9627,-2750 -12752,-4938l0 -6626 51322 0 0 6626c-2187,1563 -6251,3876 -10564,4938l0 37256 9001 -2187 22880 -35069c-4187,-938 -9001,-3251 -11502,-4938l0 -6626z"/>
     <path fill="black" d="M1962565 395907l10690 1563 0 6501c-5126,2626 -20816,5251 -28631,5876l-6064 0c-2000,-4814 -2187,-8189 -2313,-15003l-750 0c-2313,8189 -10439,15316 -23192,15316 -14002,0 -25317,-8314 -25317,-22067 0,-17753 12003,-23317 48697,-25192 1688,-17629 -938,-23630 -9814,-23630 -2938,0 -5939,500 -8064,1563l-7314 18566 -8378 1c-3750,-4001 -8126,-13753 -9189,-21004 7938,-5564 23317,-9127 38069,-9127 24880,0 31882,9564 31882,24567 0,12190 -750,20567 -750,31069 -63,4375 125,7313 438,11001zm-26881 -9877l0 -15128c-16816,625 -20691,3377 -20691,13753 0,7251 3251,11565 9190,11565 7750,0 10564,-6188 11501,-10190z"/>
     <path fill="black" d="M2025514 408284l-45572 0 0 -7127c2938,-1688 6564,-2750 10252,-3688l0 -55448c-3751,-938 -7314,-2000 -10252,-3688l0 -7313 45572 0 0 7251c-2313,1375 -4814,2626 -8251,3688l0 22253 25817 2 0 -22254c-2813,-625 -5439,-1876 -8064,-3688l0 -7252 45384 0 0 7251c-2813,1688 -6252,2937 -10252,3688l0 55448c3751,750 7314,1688 10252,3688l0 7127 -45384 1 0 -7127c2626,-1876 5126,-3063 8064,-3688l0 -23317 -25817 0 0 23317c3563,750 5938,2188 8251,3688l0 7188z"/>
     <path fill="black" d="M2156977 408284l-49885 0 0 -7127c3251,-1688 7752,-2938 11377,-3688l0 -56386 -9314 1 -6814 22880 -8064 0c-2626,-8814 -5001,-25191 -5126,-32881l85830 -1c-126,7439 -2188,24130 -5001,32881l-8065 1 -6814 -22880 -9501 0 0 56386c4814,1250 9626,2501 11502,3688l-1 7126 -124 0z"/>
     <path fill="black" d="M2254245 395907l10753 1563 0 6501c-5126,2626 -20817,5251 -28631,5876l-6064 0c-2000,-4814 -2188,-8189 -2313,-15003l-750 0c-2313,8189 -10439,15316 -23192,15316 -14002,0 -25317,-8314 -25317,-22067 0,-17753 12003,-23317 48697,-25192 1688,-17629 -938,-23630 -9815,-23630 -2938,0 -5875,500 -8063,1563l-7314 18566 -8378 1c-3751,-4001 -8064,-13753 -9189,-21004 7938,-5564 23317,-9127 38069,-9127 24880,0 31882,9564 31882,24567 0,12190 -750,20567 -750,31069 -62,4375 62,7313 375,11001zm-26880 -9877l0 -15128c-16816,625 -20691,3377 -20691,13753 0,7251 3251,11565 9190,11565 7751,0 10563,-6188 11501,-10190z"/>
    </g>
   </g>
   <g>
    <path fill="black" d="M714264 181241c-10939,-1813 -21503,-6188 -29818,-11627l0 -15628 207040 0c-376,24004 -5502,61137 -9815,81141l-18567 0 -24380 -54573 -58948 0 0 79703c8751,-1063 27630,-2188 37507,-2188 50573,0 93143,21129 93143,73827 0,50947 -42946,77890 -105895,77890 -5439,0 -49447,-1064 -64387,-1064l-55636 0 0 -15627c8751,-5439 19253,-9815 29818,-11252l1 -200602 -63 0zm65449 105146l0 95330c4002,1438 16004,1814 20004,1814 25130,0 38945,-20004 38945,-50197 0,-29818 -11628,-48760 -40759,-48760 -5437,-1 -14188,375 -18190,1813z"/>
    <path fill="black" d="M1045265 153923l109145 0 0 15254c-4376,3251 -12752,8376 -24004,11252l0 13815c11252,-1813 29130,-1813 36756,-1813 52011,0 86204,32006 86204,85142 0,60387 -44008,88391 -92392,88391 -5064,0 -22192,-375 -30568,-1813l0 17816c9438,2187 18565,7251 24004,11627l0 14941 -109145 0 0 -14941c6189,-4375 16003,-9438 25818,-11252l0 -17441c-11252,1063 -27318,1063 -36757,1063 -44384,0 -86204,-23254 -86204,-84766 0,-56760 41133,-88767 93517,-88767 6189,0 21504,0 29444,750l0 -12752c-11252,-2564 -21129,-7627 -25818,-11252l0 -15254zm26192 185912l0 -121523c-5813,-751 -7626,-1064 -13440,-1064 -20379,0 -41820,17066 -41820,64013 0,40382 16754,60011 41820,60011 4688,63 8689,-313 13440,-1437zm58574 -120399l0 121149c4689,1063 9439,750 13440,750 21441,0 41820,-16378 41820,-63700 0,-39320 -12752,-60387 -39632,-60387 -5439,0 -9815,376 -15628,2188z"/>
    <path fill="black" d="M1435089 181241c-11628,-2563 -19316,-6876 -26193,-11627l0 -15628 91705 0 0 15628c-5438,4001 -14190,8751 -25504,11627l-68763 154279c-24380,53448 -53448,80391 -81828,74952 -8752,-7627 -21129,-37820 -22191,-49135l12377 -17128 46946 15253c4002,-5063 5814,-8001 9439,-15627l-100769 -162656c-9127,-2188 -17504,-7251 -23692,-11628l0 -15628 123335 0 0 15628c-6563,4751 -16003,9064 -26568,11628l46196 85892 7627 23254 751 0 7314 -24004 29818 -85080z"/>
   </g>
  </g>
 </g>
</svg>
